<svg version="1.1" id="Layer_1" xmlns="http://www.w3.org/2000/svg" xmlns:xlink="http://www.w3.org/1999/xlink" x="0px" y="0px"
	 width="100%" viewBox="0 0 1024 576" enable-background="new 0 0 1024 576" xml:space="preserve">
<path fill="#A65E4E" opacity="1.000000" stroke="none" 
	d="
M414.592285,241.107971 
	C414.743256,236.780334 414.634735,232.948837 413.430481,229.257553 
	C412.479767,226.343460 410.593414,224.841827 407.340729,225.637283 
	C402.061371,226.928406 396.908417,227.286697 393.600891,221.833466 
	C390.701813,217.053589 390.513123,211.900436 393.454559,207.140045 
	C396.803772,201.719650 402.087524,200.194122 408.216614,201.092926 
	C420.629364,202.913193 433.035736,203.290680 445.470032,201.158737 
	C450.723694,200.257965 455.580231,201.297501 458.756561,205.973206 
	C461.982880,210.722427 462.255554,215.965958 459.933044,221.205338 
	C458.571228,224.277557 455.964783,225.626923 452.629028,225.338898 
	C447.783539,224.920547 446.003571,227.233978 446.281128,231.877274 
	C446.489502,235.363831 446.421112,238.875656 446.302948,242.370377 
	C446.203705,245.305618 447.360077,246.640900 450.381012,246.619095 
	C459.544037,246.552902 468.708679,246.548218 477.871094,246.654770 
	C480.940002,246.690460 482.022583,245.329483 481.934631,242.422485 
	C481.813782,238.427094 481.876373,234.426331 481.848145,230.427948 
	C481.825806,227.265244 480.461884,225.220901 477.068512,225.409897 
	C471.741669,225.706573 468.558350,223.466782 467.421387,218.163559 
	C466.071503,211.867386 468.279449,205.564713 473.025116,202.804672 
	C476.506287,200.780060 480.263519,200.415039 484.144562,201.114655 
	C496.563385,203.353317 508.988251,202.712418 521.395508,201.129532 
	C526.406738,200.490219 530.802856,201.579071 533.951477,205.532532 
	C537.123291,209.515182 538.180603,214.135834 536.255310,219.132172 
	C533.955688,225.099930 529.604736,227.322296 522.593384,226.077225 
	C516.116699,224.927094 514.270569,226.294922 514.251221,232.729340 
	C514.195007,251.389587 514.181641,270.050568 514.293579,288.710419 
	C514.337219,295.977386 516.563660,297.689453 523.510864,296.428467 
	C530.938660,295.080231 536.016541,298.850250 537.099060,306.516876 
	C538.081299,313.473419 532.726318,320.679291 526.028442,321.281738 
	C520.009949,321.823059 514.025146,321.115814 508.145721,320.016418 
	C501.104858,318.699799 494.232391,319.649902 487.311005,320.628723 
	C485.338837,320.907623 483.356659,321.120392 481.375702,321.331970 
	C468.476654,322.709930 464.750458,309.706787 468.414825,301.111420 
	C469.842865,297.761749 472.691162,296.435852 476.117889,296.768433 
	C480.641846,297.207489 482.043457,295.096039 481.918152,290.928650 
	C481.752991,285.435425 481.811401,279.932831 481.893097,274.436005 
	C481.936676,271.505707 480.783203,270.242615 477.748169,270.279266 
	C468.585907,270.389862 459.421143,270.359802 450.257965,270.297333 
	C447.590820,270.279175 446.250122,271.203430 446.299042,274.064331 
	C446.401520,280.060577 446.340424,286.059723 446.335693,292.057678 
	C446.333344,295.006317 447.472626,296.648804 450.724060,296.838928 
	C458.839783,297.313507 461.374481,300.061554 461.306702,307.839081 
	C461.237762,315.748352 456.674103,321.072937 449.581055,321.293365 
	C446.931824,321.375702 444.187256,321.408539 441.628174,320.832733 
	C432.193237,318.709839 422.773682,319.171967 413.364777,320.678650 
	C410.210419,321.183777 407.079803,321.274017 403.919708,321.344330 
	C398.658173,321.461395 394.834961,318.989044 392.840942,314.328918 
	C390.616913,309.131287 390.793488,303.788605 394.636688,299.292023 
	C396.873383,296.675079 399.930237,295.438354 403.607239,296.067383 
	C412.376373,297.567413 414.266266,296.071686 414.545410,287.074219 
	C414.751984,280.416138 414.586945,273.746552 414.587921,267.082092 
	C414.589172,258.585052 414.590912,250.088028 414.592285,241.107971 
z"/>
<path fill="#A65E4E" opacity="1.000000" stroke="none" 
	d="
M390.291870,214.061386 
	C389.322449,223.562363 384.274414,227.506210 375.399109,226.122192 
	C369.421936,225.190109 367.587891,226.546982 367.408447,232.728363 
	C367.200653,239.886963 367.340271,247.055740 367.336487,254.220108 
	C367.331665,263.383911 367.118866,272.553894 367.380768,281.710175 
	C367.850861,298.143982 360.453125,309.571228 346.133392,317.183228 
	C326.875854,327.420074 300.269501,325.657135 283.886871,312.291901 
	C273.558929,303.866180 269.705688,292.637146 272.868683,279.689484 
	C275.637177,268.356537 282.931030,260.622528 294.382874,257.555908 
	C303.027435,255.241043 311.305084,256.455017 318.475739,262.153992 
	C324.183075,266.690033 326.414948,272.703949 324.897064,279.913452 
	C322.840912,289.679413 310.412201,296.554504 301.513824,286.978271 
	C298.918762,290.248383 299.441467,293.674652 303.540192,296.724792 
	C309.950775,301.495331 317.080688,300.948059 323.982025,298.209869 
	C330.386230,295.668884 333.482147,290.303864 334.722382,283.623230 
	C335.888550,277.341461 335.604523,271.035004 335.621338,264.725433 
	C335.648438,254.562042 335.682465,244.398041 335.600525,234.235184 
	C335.539429,226.654114 332.751190,224.430832 325.246399,225.674454 
	C323.608887,225.945786 321.958618,226.220886 320.304932,226.300034 
	C313.577759,226.622055 310.404816,224.609589 308.838348,219.144073 
	C306.963531,212.602570 309.001801,206.094833 313.959167,203.243134 
	C317.844940,201.007858 322.059937,200.382538 326.499664,201.054306 
	C341.572784,203.334991 356.664734,203.305008 371.733551,201.104752 
	C381.657562,199.655701 388.824677,204.391022 390.291870,214.061386 
z"/>
</svg>